# This file uses centimeters as units for non-parametric coordinates.

mtllib label-1.mtl
g default
v 3.863701 12.259215 -1.035275
v 3.464100 12.259215 -1.999999
v 2.828426 12.259215 -2.828425
v 1.999999 12.259215 -3.464099
v 1.035276 12.259215 -3.863701
v 0.000000 12.259215 -3.999998
v -1.035275 12.259215 -3.863702
v -1.999999 12.259215 -3.464100
v -2.828426 12.259215 -2.828426
v -3.464100 12.259215 -2.000000
v -3.863702 12.259215 -1.035276
v -3.999999 12.259215 -0.000000
v -3.863702 12.259215 1.035276
v -3.464101 12.259215 1.999999
v -2.828427 12.259215 2.828426
v -2.000000 12.259215 3.464101
v -1.035276 12.259215 3.863703
v -0.000000 12.259215 3.999999
v 1.035276 12.259215 3.863703
v 2.000000 12.259215 3.464101
v 2.828427 12.259215 2.828427
v 3.464102 12.259215 2.000000
v 3.863703 12.259215 1.035276
v 4.000000 12.259215 0.000000
v -0.000000 2.977706 3.999999
v -1.035276 2.977706 3.863703
v -2.000000 2.977706 3.464101
v -2.828427 2.977706 2.828426
v -3.464101 2.977706 1.999999
v -3.863702 2.977706 1.035276
v -3.999999 2.977706 -0.000000
v -3.863702 2.977706 -1.035276
v -3.464100 2.977706 -2.000000
v -2.828426 2.977706 -2.828426
v -1.999999 2.977706 -3.464100
v -1.035275 2.977706 -3.863702
v 0.000000 2.977706 -3.999998
v 1.035276 2.977706 -3.863701
v 1.999999 2.977706 -3.464099
v 2.828426 2.977706 -2.828425
v 3.464100 2.977706 -1.999999
v 3.863701 2.977706 -1.035275
v 4.000000 2.977706 0.000000
v 3.863703 2.977706 1.035276
v 3.464102 2.977706 2.000000
v 2.828427 2.977706 2.828427
v 2.000000 2.977706 3.464101
v 1.035276 2.977706 3.863703
vt 0.414263 0.576155
vt 0.452563 0.576155
vt 0.452563 0.944634
vt 0.414263 0.944634
vt 0.485451 0.576155
vt 0.485451 0.944634
vt 0.373162 0.576155
vt 0.373162 0.944634
vt 0.510688 0.576155
vt 0.510688 0.944634
vt 0.332061 0.576155
vt 0.332061 0.944634
vt 0.293761 0.576155
vt 0.293761 0.944634
vt 0.260872 0.576155
vt 0.260872 0.944634
vt 0.235636 0.576155
vt 0.235636 0.944634
vt 0.848116 0.576155
vt 0.886416 0.576155
vt 0.886416 0.944634
vt 0.848116 0.944634
vt 0.919305 0.576155
vt 0.919305 0.944634
vt 0.807015 0.576155
vt 0.807015 0.944634
vt 0.944541 0.576155
vt 0.944541 0.944634
vt 0.765915 0.576155
vt 0.765915 0.944634
vt 0.727615 0.576155
vt 0.727615 0.944634
vt 0.694726 0.576155
vt 0.694726 0.944634
vt 0.669489 0.576155
vt 0.669489 0.944634
vt 0.590089 0.576155
vt 0.590089 0.944634
vt 0.548988 0.944634
vt 0.548988 0.576155
vt 0.631189 0.576155
vt 0.631189 0.944634
vt 0.197336 0.576155
vt 0.197336 0.944634
vt 0.156235 0.576155
vt 0.156235 0.944634
vt 0.115135 0.576155
vt 0.115135 0.944634
vt 0.076835 0.576155
vt 0.076835 0.944634
vn 0.000000 0.000000 1.000000
vn -0.000000 0.017135 0.999853
vn -0.258781 0.017135 0.965784
vn -0.258819 -0.000000 0.965926
vn -0.500000 -0.000000 0.866025
vn -0.499927 0.017135 0.865898
vn -0.707107 -0.000000 0.707107
vn -0.707003 0.017135 0.707003
vn -0.866026 -0.000000 0.500000
vn -0.865898 0.017135 0.499926
vn -0.965926 -0.000000 0.258819
vn -0.965784 0.017135 0.258781
vn -1.000000 0.000000 -0.000000
vn -0.999853 0.017135 -0.000000
vn -0.965926 0.000000 -0.258819
vn -0.965784 0.017135 -0.258781
vn -0.866025 -0.000000 -0.500000
vn -0.865898 0.017135 -0.499927
vn -0.707107 -0.000000 -0.707107
vn -0.707003 0.017135 -0.707003
vn -0.500000 -0.000000 -0.866026
vn -0.499926 0.017135 -0.865898
vn -0.258819 -0.000000 -0.965926
vn -0.258781 0.017135 -0.965784
vn 0.000000 -0.000000 -1.000000
vn 0.000000 0.017135 -0.999853
vn 0.258819 -0.000000 -0.965926
vn 0.258781 0.017135 -0.965784
vn 0.500000 -0.000000 -0.866025
vn 0.499927 0.017135 -0.865898
vn 0.707107 -0.000000 -0.707107
vn 0.707003 0.017135 -0.707003
vn 0.866026 0.000000 -0.500000
vn 0.865898 0.017135 -0.499927
vn 0.965926 0.000000 -0.258820
vn 0.965784 0.017135 -0.258782
vn 1.000000 0.000000 -0.000001
vn 0.999853 0.017135 -0.000001
vn 0.965926 0.000000 0.258819
vn 0.965784 0.017135 0.258781
vn 0.866025 0.000000 0.500000
vn 0.865898 0.017135 0.499927
vn 0.707107 0.000000 0.707107
vn 0.707003 0.017135 0.707003
vn 0.500000 0.000000 0.866026
vn 0.499926 0.017135 0.865898
vn 0.258819 0.000000 0.965926
vn 0.258781 0.017135 0.965784
s 1
g pCylinder1
usemtl initialShadingGroup
f 25/37/1 18/38/2 17/39/3 26/40/4
f 27/9/5 26/40/4 17/39/3 16/10/6
f 28/5/7 27/9/5 16/10/6 15/6/8
f 29/2/9 28/5/7 15/6/8 14/3/10
f 30/1/11 29/2/9 14/3/10 13/4/12
f 31/7/13 30/1/11 13/4/12 12/8/14
f 32/11/15 31/7/13 12/8/14 11/12/16
f 33/13/17 32/11/15 11/12/16 10/14/18
f 34/15/19 33/13/17 10/14/18 9/16/20
f 35/17/21 34/15/19 9/16/20 8/18/22
f 36/43/23 35/17/21 8/18/22 7/44/24
f 37/45/25 36/43/23 7/44/24 6/46/26
f 38/47/27 37/45/25 6/46/26 5/48/28
f 39/49/29 38/47/27 5/48/28 4/50/30
f 40/23/31 39/27/29 4/28/30 3/24/32
f 41/20/33 40/23/31 3/24/32 2/21/34
f 42/19/35 41/20/33 2/21/34 1/22/36
f 43/25/37 42/19/35 1/22/36 24/26/38
f 44/29/39 43/25/37 24/26/38 23/30/40
f 45/31/41 44/29/39 23/30/40 22/32/42
f 46/33/43 45/31/41 22/32/42 21/34/44
f 47/35/45 46/33/43 21/34/44 20/36/46
f 48/41/47 47/35/45 20/36/46 19/42/48
f 25/37/1 48/41/47 19/42/48 18/38/2
