# This file uses centimeters as units for non-parametric coordinates.

mtllib cork.mtl
g default
v 0.368535 -1.500000 -0.119744
v 0.313494 -1.500000 -0.227767
v 0.227767 -1.500000 -0.313494
v 0.119744 -1.500000 -0.368535
v 0.000000 -1.500000 -0.387500
v -0.119744 -1.500000 -0.368535
v -0.227767 -1.500000 -0.313494
v -0.313494 -1.500000 -0.227767
v -0.368534 -1.500000 -0.119744
v -0.387500 -1.500000 0.000000
v -0.368534 -1.500000 0.119744
v -0.313494 -1.500000 0.227767
v -0.227767 -1.500000 0.313494
v -0.119744 -1.500000 0.368534
v -0.000000 -1.500000 0.387500
v 0.119744 -1.500000 0.368534
v 0.227767 -1.500000 0.313494
v 0.313494 -1.500000 0.227767
v 0.368534 -1.500000 0.119744
v 0.387500 -1.500000 0.000000
v 0.712958 -1.441725 -0.231654
v 0.606479 -1.441725 -0.440633
v 0.440633 -1.441725 -0.606479
v 0.231654 -1.441725 -0.712958
v -0.000000 -1.441725 -0.749649
v -0.231654 -1.441725 -0.712958
v -0.440632 -1.441725 -0.606479
v -0.606478 -1.441725 -0.440632
v -0.712958 -1.441725 -0.231654
v -0.749649 -1.441725 -0.000000
v -0.712958 -1.441725 0.231654
v -0.606478 -1.441725 0.440632
v -0.440632 -1.441725 0.606478
v -0.231654 -1.441725 0.712958
v -0.000000 -1.441725 0.749649
v 0.231654 -1.441725 0.712958
v 0.440632 -1.441725 0.606478
v 0.606478 -1.441725 0.440632
v 0.712958 -1.441725 0.231654
v 0.749648 -1.441725 -0.000000
v 0.704010 1.439849 -0.228747
v 0.598866 1.439849 -0.435102
v 0.435102 1.439849 -0.598866
v 0.228747 1.439849 -0.704010
v -0.000000 1.439849 -0.740239
v -0.228747 1.439849 -0.704010
v -0.435102 1.439849 -0.598866
v -0.598866 1.439849 -0.435102
v -0.704009 1.439849 -0.228747
v -0.740239 1.439849 -0.000000
v -0.704009 1.439849 0.228747
v -0.598866 1.439849 0.435102
v -0.435102 1.439849 0.598866
v -0.228747 1.439849 0.704009
v -0.000000 1.439849 0.740239
v 0.228746 1.439849 0.704009
v 0.435102 1.439849 0.598866
v 0.598866 1.439849 0.435102
v 0.704009 1.439849 0.228746
v 0.740239 1.439849 -0.000000
v 0.368535 1.500000 -0.119744
v 0.313494 1.500000 -0.227767
v 0.227767 1.500000 -0.313494
v 0.119744 1.500000 -0.368535
v 0.000000 1.500000 -0.387500
v -0.119744 1.500000 -0.368535
v -0.227767 1.500000 -0.313494
v -0.313494 1.500000 -0.227767
v -0.368534 1.500000 -0.119744
v -0.387500 1.500000 0.000000
v -0.368534 1.500000 0.119744
v -0.313494 1.500000 0.227767
v -0.227767 1.500000 0.313494
v -0.119744 1.500000 0.368534
v -0.000000 1.500000 0.387500
v 0.119744 1.500000 0.368534
v 0.227767 1.500000 0.313494
v 0.313494 1.500000 0.227767
v 0.368534 1.500000 0.119744
v 0.387500 1.500000 0.000000
v 0.000000 -1.500000 0.000000
v 0.000000 1.500000 0.000000
v -0.455534 1.354605 -0.626988
v -0.239488 1.354605 -0.737069
v 0.000000 1.354605 -0.775000
v 0.239488 1.354605 -0.737069
v 0.455534 1.354605 -0.626989
v 0.626989 1.354605 -0.455534
v 0.737069 1.354605 -0.239488
v 0.775000 1.354605 0.000000
v 0.737069 1.354605 0.239488
v 0.626988 1.354605 0.455534
v 0.455534 1.354605 0.626988
v 0.239488 1.354605 0.737069
v -0.000000 1.354605 0.775000
v -0.239488 1.354605 0.737069
v -0.455534 1.354605 0.626988
v -0.626988 1.354605 0.455534
v -0.737069 1.354605 0.239488
v -0.775000 1.354605 0.000000
v -0.737069 1.354605 -0.239488
v -0.626988 1.354605 -0.455534
v -0.455534 -1.378823 -0.626988
v -0.239488 -1.378823 -0.737069
v 0.000000 -1.378823 -0.775000
v 0.239488 -1.378823 -0.737069
v 0.455534 -1.378823 -0.626989
v 0.626989 -1.378823 -0.455534
v 0.737069 -1.378823 -0.239488
v 0.775000 -1.378823 0.000000
v 0.737069 -1.378823 0.239488
v 0.626988 -1.378823 0.455534
v 0.455534 -1.378823 0.626988
v 0.239488 -1.378823 0.737069
v -0.000000 -1.378823 0.775000
v -0.239488 -1.378823 0.737069
v -0.455534 -1.378823 0.626988
v -0.626988 -1.378823 0.455534
v -0.737069 -1.378823 0.239488
v -0.775000 -1.378823 0.000000
v -0.737069 -1.378823 -0.239488
v -0.626988 -1.378823 -0.455534
v -0.397840 1.500000 -0.547580
v -0.209157 1.500000 -0.643719
v 0.000000 1.500000 -0.676847
v 0.209157 1.500000 -0.643719
v 0.397840 1.500000 -0.547580
v 0.547581 1.500000 -0.397840
v 0.643719 1.500000 -0.209157
v 0.676846 1.500000 0.000000
v 0.643719 1.500000 0.209157
v 0.547580 1.500000 0.397840
v 0.397840 1.500000 0.547580
v 0.209157 1.500000 0.643719
v -0.000000 1.500000 0.676846
v -0.209157 1.500000 0.643719
v -0.397840 1.500000 0.547580
v -0.547580 1.500000 0.397840
v -0.643719 1.500000 0.209157
v -0.676846 1.500000 0.000000
v -0.643719 1.500000 -0.209157
v -0.547580 1.500000 -0.397840
v 0.000000 -1.500000 -0.714108
v 0.220671 -1.500000 -0.679157
v 0.419742 -1.500000 -0.577725
v 0.577726 -1.500000 -0.419742
v 0.679157 -1.500000 -0.220671
v 0.714108 -1.500000 0.000000
v 0.679157 -1.500000 0.220671
v 0.577725 -1.500000 0.419742
v 0.419742 -1.500000 0.577725
v 0.220671 -1.500000 0.679157
v -0.000000 -1.500000 0.714108
v -0.220671 -1.500000 0.679157
v -0.419742 -1.500000 0.577725
v -0.577725 -1.500000 0.419742
v -0.679157 -1.500000 0.220671
v -0.714108 -1.500000 0.000000
v -0.679157 -1.500000 -0.220671
v -0.577725 -1.500000 -0.419742
v -0.419742 -1.500000 -0.577725
v -0.220671 -1.500000 -0.679157
vt 0.177468 0.013749
vt 0.220176 0.013749
vt 0.223221 0.026604
vt 0.179069 0.026604
vt 0.175224 0.001839
vt 0.215907 0.001839
vt 0.254069 0.013749
vt 0.258260 0.026604
vt 0.223221 0.585219
vt 0.179069 0.585219
vt 0.130126 0.013749
vt 0.130126 0.026604
vt 0.248193 0.001839
vt 0.130126 0.001839
vt 0.258260 0.585219
vt 0.219046 0.602640
vt 0.176874 0.602640
vt 0.130126 0.585219
vt 0.082784 0.013749
vt 0.081183 0.026604
vt 0.085029 0.001839
vt 0.252513 0.602640
vt 0.211431 0.614933
vt 0.172870 0.614933
vt 0.130126 0.602640
vt 0.081183 0.585219
vt 0.040077 0.013749
vt 0.037031 0.026604
vt 0.044346 0.001839
vt 0.130126 0.614933
vt 0.083378 0.602640
vt 0.037031 0.585219
vt 0.006184 0.013749
vt 0.001992 0.026604
vt 0.012060 0.001839
vt 0.087382 0.614933
vt 0.041207 0.602640
vt 0.001992 0.585219
vt 0.048822 0.614933
vt 0.007739 0.602640
vt 0.303380 0.013749
vt 0.346088 0.013749
vt 0.344487 0.026604
vt 0.300335 0.026604
vt 0.307649 0.001839
vt 0.348332 0.001839
vt 0.393430 0.013749
vt 0.393430 0.026604
vt 0.344487 0.585219
vt 0.300335 0.585219
vt 0.269487 0.013749
vt 0.265296 0.026604
vt 0.393430 0.001839
vt 0.275363 0.001839
vt 0.440772 0.013749
vt 0.442373 0.026604
vt 0.393430 0.585219
vt 0.346682 0.602640
vt 0.304510 0.602640
vt 0.265296 0.585219
vt 0.438527 0.001839
vt 0.483479 0.013749
vt 0.486525 0.026604
vt 0.442373 0.585219
vt 0.393430 0.602640
vt 0.350685 0.614933
vt 0.312125 0.614933
vt 0.271043 0.602640
vt 0.479210 0.001839
vt 0.517372 0.013749
vt 0.521564 0.026604
vt 0.486525 0.585219
vt 0.440177 0.602640
vt 0.393430 0.614933
vt 0.511496 0.001839
vt 0.521564 0.585219
vt 0.482349 0.602640
vt 0.436174 0.614933
vt 0.515817 0.602640
vt 0.474734 0.614933
vt 0.927385 0.723452
vt 0.916137 0.701376
vt 0.970136 0.662143
vt 0.990865 0.702826
vt 0.852070 0.747924
vt 0.898617 0.683857
vt 0.937850 0.629857
vt 0.931261 0.747924
vt 0.998008 0.747924
vt 0.876541 0.672608
vt 0.897167 0.609128
vt 0.927385 0.772395
vt 0.990865 0.793021
vt 0.852070 0.668732
vt 0.852070 0.601985
vt 0.899412 0.602220
vt 0.942119 0.623981
vt 0.916137 0.794471
vt 0.970136 0.833704
vt 0.827598 0.672608
vt 0.806972 0.609128
vt 0.852070 0.594722
vt 0.898617 0.811991
vt 0.937850 0.865990
vt 0.805522 0.683857
vt 0.766289 0.629857
vt 0.804728 0.602220
vt 0.876541 0.823239
vt 0.897167 0.886719
vt 0.788003 0.701376
vt 0.734003 0.662143
vt 0.762020 0.623981
vt 0.942119 0.871866
vt 0.899412 0.893627
vt 0.852070 0.827115
vt 0.852070 0.893862
vt 0.776754 0.723452
vt 0.713274 0.702826
vt 0.852070 0.901125
vt 0.827598 0.823239
vt 0.806972 0.886719
vt 0.772879 0.747924
vt 0.706132 0.747924
vt 0.804728 0.893627
vt 0.805522 0.811991
vt 0.766289 0.865990
vt 0.776754 0.772395
vt 0.713274 0.793021
vt 0.762020 0.871866
vt 0.788003 0.794471
vt 0.734003 0.833704
vt 0.684060 0.859122
vt 0.650592 0.892590
vt 0.642977 0.882109
vt 0.673579 0.851507
vt 0.608421 0.914077
vt 0.604417 0.901756
vt 0.608220 0.834270
vt 0.625740 0.816750
vt 0.561673 0.921481
vt 0.561673 0.908526
vt 0.586144 0.845518
vt 0.561673 0.770203
vt 0.693226 0.812947
vt 0.636988 0.794674
vt 0.514925 0.914077
vt 0.518929 0.901756
vt 0.561673 0.849394
vt 0.699996 0.770203
vt 0.640864 0.770203
vt 0.472754 0.892590
vt 0.480368 0.882109
vt 0.537201 0.845518
vt 0.693226 0.727458
vt 0.636988 0.745731
vt 0.439286 0.859122
vt 0.449767 0.851507
vt 0.515125 0.834270
vt 0.673579 0.688898
vt 0.625740 0.723655
vt 0.497606 0.816750
vt 0.642977 0.658297
vt 0.608220 0.706136
vt 0.430120 0.812947
vt 0.486358 0.794674
vt 0.650592 0.647816
vt 0.684060 0.681283
vt 0.604417 0.638649
vt 0.586144 0.694887
vt 0.423350 0.770203
vt 0.482482 0.770203
vt 0.608421 0.626328
vt 0.561673 0.631879
vt 0.561673 0.691011
vt 0.430120 0.727458
vt 0.486358 0.745731
vt 0.561673 0.618924
vt 0.518929 0.638649
vt 0.537201 0.694887
vt 0.449767 0.688898
vt 0.497606 0.723655
vt 0.514925 0.626328
vt 0.480368 0.658297
vt 0.515125 0.706136
vt 0.472754 0.647816
vt 0.439286 0.681283
vt 0.711549 0.590731
vt 0.668841 0.590731
vt 0.670442 0.577875
vt 0.714594 0.577875
vt 0.621499 0.590731
vt 0.621499 0.577875
vt 0.670442 0.019260
vt 0.714594 0.019260
vt 0.574157 0.590731
vt 0.572556 0.577875
vt 0.621499 0.019260
vt 0.668247 0.001839
vt 0.710418 0.001839
vt 0.531449 0.590731
vt 0.528404 0.577875
vt 0.572556 0.019260
vt 0.621499 0.001839
vt 0.528404 0.019260
vt 0.574751 0.001839
vt 0.532580 0.001839
vt 0.724396 0.001839
vt 0.767103 0.001839
vt 0.765502 0.014694
vt 0.721350 0.014694
vt 0.814445 0.001839
vt 0.814445 0.014694
vt 0.765502 0.573310
vt 0.721350 0.573310
vt 0.861787 0.001839
vt 0.863388 0.014694
vt 0.814445 0.573310
vt 0.767698 0.590731
vt 0.725526 0.590731
vt 0.904495 0.001839
vt 0.907540 0.014694
vt 0.863388 0.573310
vt 0.814445 0.590731
vt 0.907540 0.573310
vt 0.861193 0.590731
vt 0.903365 0.590731
vn 0.000000 -1.000000 0.000000
vn 0.000000 -1.000000 -0.000000
vn 0.186598 -0.973037 -0.135571
vn 0.219360 -0.973037 -0.071274
vn 0.000000 -1.000000 0.000000
vn 0.135572 -0.973037 -0.186598
vn 0.000000 -1.000000 0.000000
vn 0.071274 -0.973037 -0.219360
vn 0.000000 -1.000000 0.000000
vn -0.000000 -0.973037 -0.230648
vn 0.000000 -1.000000 0.000000
vn -0.071274 -0.973037 -0.219360
vn 0.000000 -1.000000 0.000000
vn -0.135572 -0.973037 -0.186598
vn 0.000000 -1.000000 0.000000
vn -0.186599 -0.973037 -0.135571
vn 0.000000 -1.000000 -0.000000
vn -0.219360 -0.973037 -0.071274
vn 0.000000 -1.000000 0.000000
vn -0.230648 -0.973037 -0.000000
vn 0.000000 -1.000000 0.000000
vn -0.219360 -0.973037 0.071275
vn 0.000000 -1.000000 -0.000000
vn -0.186598 -0.973037 0.135572
vn 0.000000 -1.000000 0.000000
vn -0.135572 -0.973037 0.186598
vn 0.000000 -1.000000 0.000000
vn -0.071274 -0.973037 0.219360
vn 0.000000 -1.000000 0.000000
vn 0.000000 -0.973037 0.230649
vn 0.000000 -1.000000 0.000000
vn 0.071274 -0.973037 0.219360
vn 0.000000 -1.000000 0.000000
vn 0.135572 -0.973037 0.186599
vn 0.000000 -1.000000 -0.000000
vn 0.186599 -0.973037 0.135571
vn 0.000000 -1.000000 -0.000001
vn 0.219360 -0.973037 0.071274
vn 0.000000 -1.000000 0.000000
vn 0.230648 -0.973037 0.000000
vn 0.882109 -0.373814 -0.286614
vn 0.750366 -0.373814 -0.545173
vn 0.808987 -0.008595 -0.587764
vn 0.951022 -0.008595 -0.309005
vn 0.545173 -0.373814 -0.750367
vn 0.587763 -0.008595 -0.808987
vn 0.286614 -0.373814 -0.882109
vn 0.309005 -0.008595 -0.951021
vn -0.000000 -0.373814 -0.927504
vn -0.000000 -0.008595 -0.999963
vn -0.286614 -0.373814 -0.882108
vn -0.309006 -0.008595 -0.951021
vn -0.545173 -0.373815 -0.750366
vn -0.587764 -0.008596 -0.808987
vn -0.750366 -0.373814 -0.545173
vn -0.808987 -0.008595 -0.587763
vn -0.882108 -0.373815 -0.286615
vn -0.951021 -0.008596 -0.309005
vn -0.927503 -0.373815 0.000000
vn -0.999963 -0.008596 0.000000
vn -0.882108 -0.373815 0.286614
vn -0.951021 -0.008596 0.309006
vn -0.750366 -0.373814 0.545173
vn -0.808987 -0.008595 0.587764
vn -0.545173 -0.373814 0.750367
vn -0.587763 -0.008595 0.808987
vn -0.286614 -0.373814 0.882108
vn -0.309006 -0.008595 0.951021
vn 0.000000 -0.373814 0.927504
vn 0.000000 -0.008595 0.999963
vn 0.286614 -0.373814 0.882108
vn 0.309006 -0.008595 0.951021
vn 0.545173 -0.373814 0.750366
vn 0.587764 -0.008596 0.808987
vn 0.750366 -0.373814 0.545173
vn 0.808987 -0.008595 0.587763
vn 0.882109 -0.373814 0.286615
vn 0.951021 -0.008595 0.309006
vn 0.927504 -0.373814 0.000001
vn 0.999963 -0.008595 0.000001
vn 0.654629 0.725410 -0.212701
vn 0.556861 0.725410 -0.404582
vn 0.192321 0.971333 -0.139729
vn 0.226087 0.971333 -0.073460
vn 0.404583 0.725410 -0.556860
vn 0.139729 0.971333 -0.192321
vn 0.212702 0.725410 -0.654628
vn 0.073460 0.971333 -0.226087
vn -0.000000 0.725410 -0.688317
vn -0.000000 0.971333 -0.237722
vn -0.212702 0.725410 -0.654628
vn -0.073460 0.971333 -0.226087
vn -0.404583 0.725410 -0.556861
vn -0.139730 0.971333 -0.192321
vn -0.556861 0.725410 -0.404583
vn -0.192321 0.971333 -0.139729
vn -0.654628 0.725410 -0.212701
vn -0.226087 0.971333 -0.073460
vn -0.688317 0.725411 0.000000
vn -0.237722 0.971333 0.000000
vn -0.654628 0.725410 0.212701
vn -0.226087 0.971333 0.073460
vn -0.556860 0.725410 0.404582
vn -0.192321 0.971333 0.139729
vn -0.404583 0.725410 0.556861
vn -0.139730 0.971333 0.192321
vn -0.212702 0.725409 0.654629
vn -0.073460 0.971333 0.226087
vn 0.000000 0.725409 0.688318
vn 0.000000 0.971333 0.237722
vn 0.212702 0.725409 0.654629
vn 0.073460 0.971333 0.226087
vn 0.404583 0.725409 0.556861
vn 0.139730 0.971333 0.192321
vn 0.556861 0.725410 0.404583
vn 0.192321 0.971333 0.139730
vn 0.654629 0.725410 0.212702
vn 0.226087 0.971333 0.073460
vn 0.688317 0.725410 0.000000
vn 0.237722 0.971333 0.000000
vn 0.000000 -1.000000 -0.000000
vn 0.000000 1.000000 -0.000000
vn 0.000000 1.000000 -0.000000
vn 0.000000 1.000000 -0.000000
vn 0.000000 1.000000 0.000000
vn 0.000000 1.000000 0.000000
vn 0.000000 1.000000 0.000000
vn 0.000000 1.000000 0.000000
vn 0.000000 1.000000 0.000000
vn 0.000000 1.000000 0.000000
vn 0.000000 1.000000 -0.000000
vn 0.000000 1.000000 0.000000
vn 0.000000 1.000000 0.000000
vn 0.000000 1.000000 0.000000
vn 0.000000 1.000000 -0.000000
vn 0.000000 1.000000 -0.000000
vn 0.000000 1.000000 -0.000000
vn 0.000000 1.000000 -0.000000
vn 0.000000 1.000000 -0.000000
vn 0.000000 1.000000 0.000000
vn 0.000000 1.000000 -0.000000
vn 0.000000 1.000000 0.000000
vn -0.308996 0.011622 -0.950992
vn -0.587746 0.011622 -0.808962
vn -0.544272 0.377594 -0.749126
vn -0.286141 0.377594 -0.880651
vn -0.000000 0.011622 -0.999933
vn -0.000000 0.377594 -0.925971
vn 0.308996 0.011622 -0.950992
vn 0.286141 0.377594 -0.880651
vn 0.587745 0.011622 -0.808962
vn 0.544272 0.377594 -0.749127
vn 0.808962 0.011622 -0.587746
vn 0.749126 0.377594 -0.544273
vn 0.950993 0.011622 -0.308995
vn 0.880651 0.377594 -0.286140
vn 0.999932 0.011622 0.000001
vn 0.925971 0.377594 0.000001
vn 0.950992 0.011622 0.308996
vn 0.880651 0.377594 0.286141
vn 0.808962 0.011622 0.587745
vn 0.749127 0.377594 0.544272
vn 0.587746 0.011622 0.808962
vn 0.544272 0.377594 0.749126
vn 0.308996 0.011622 0.950992
vn 0.286141 0.377594 0.880651
vn 0.000000 0.011622 0.999933
vn 0.000000 0.377594 0.925971
vn -0.308996 0.011622 0.950992
vn -0.286141 0.377594 0.880651
vn -0.587746 0.011622 0.808962
vn -0.544272 0.377594 0.749127
vn -0.808962 0.011622 0.587746
vn -0.749126 0.377594 0.544272
vn -0.950992 0.011622 0.308996
vn -0.880651 0.377594 0.286141
vn -0.999932 0.011622 0.000000
vn -0.925971 0.377594 -0.000000
vn -0.950992 0.011622 -0.308996
vn -0.880651 0.377594 -0.286141
vn -0.808963 0.011622 -0.587745
vn -0.749127 0.377594 -0.544272
vn -0.000000 -0.520686 -0.853748
vn 0.263822 -0.520686 -0.811963
vn 0.501820 -0.520686 -0.690697
vn 0.690697 -0.520686 -0.501821
vn 0.811963 -0.520686 -0.263822
vn 0.853748 -0.520686 0.000001
vn 0.811963 -0.520686 0.263822
vn 0.690697 -0.520686 0.501820
vn 0.501821 -0.520686 0.690697
vn 0.263823 -0.520686 0.811963
vn 0.000000 -0.520686 0.853748
vn -0.263823 -0.520686 0.811963
vn -0.501821 -0.520686 0.690697
vn -0.690697 -0.520685 0.501821
vn -0.811963 -0.520685 0.263823
vn -0.853749 -0.520685 -0.000000
vn -0.811964 -0.520685 -0.263823
vn -0.690698 -0.520686 -0.501820
vn -0.501821 -0.520686 -0.690697
vn -0.263823 -0.520686 -0.811963
s 1
g pCylinder2
usemtl initialShadingGroup
f 1/81/1 2/82/2 146/83/3 147/84/4
f 2/82/2 3/86/5 145/87/6 146/83/3
f 3/86/5 4/90/7 144/91/8 145/87/6
f 4/90/7 5/94/9 143/95/10 144/91/8
f 5/94/9 6/100/11 162/101/12 143/95/10
f 6/100/11 7/105/13 161/106/14 162/101/12
f 7/105/13 8/110/15 160/111/16 161/106/14
f 8/110/15 9/117/17 159/118/18 160/111/16
f 9/117/17 10/122/19 158/123/20 159/118/18
f 10/122/19 11/127/21 157/128/22 158/123/20
f 11/127/21 12/130/23 156/131/24 157/128/22
f 12/130/23 13/125/25 155/126/26 156/131/24
f 13/125/25 14/120/27 154/121/28 155/126/26
f 14/120/27 15/115/29 153/116/30 154/121/28
f 15/115/29 16/108/31 152/109/32 153/116/30
f 16/108/31 17/103/33 151/104/34 152/109/32
f 17/103/33 18/98/35 150/99/36 151/104/34
f 18/98/35 19/92/37 149/93/38 150/99/36
f 19/92/37 20/88/39 148/89/40 149/93/38
f 20/88/39 1/81/1 147/84/4 148/89/40
s 2
f 21/1/41 22/2/42 108/3/43 109/4/44
f 22/2/42 23/7/45 107/8/46 108/3/43
f 23/187/45 24/188/47 106/189/48 107/190/46
f 24/188/47 25/191/49 105/192/50 106/189/48
f 25/191/49 26/195/51 104/196/52 105/192/50
f 26/195/51 27/200/53 103/201/54 104/196/52
f 27/51/53 28/41/55 122/44/56 103/52/54
f 28/41/55 29/42/57 121/43/58 122/44/56
f 29/42/57 30/47/59 120/48/60 121/43/58
f 30/47/59 31/55/61 119/56/62 120/48/60
f 31/55/61 32/62/63 118/63/64 119/56/62
f 32/62/63 33/70/65 117/71/66 118/63/64
f 33/207/65 34/208/67 116/209/68 117/210/66
f 34/208/67 35/211/69 115/212/70 116/209/68
f 35/211/69 36/215/71 114/216/72 115/212/70
f 36/215/71 37/220/73 113/221/74 114/216/72
f 37/33/73 38/27/75 112/28/76 113/34/74
f 38/27/75 39/19/77 111/20/78 112/28/76
f 39/19/77 40/11/79 110/12/80 111/20/78
f 40/11/79 21/1/41 109/4/44 110/12/80
s 3
f 41/17/81 42/16/82 128/23/83 129/24/84
f 42/132/82 43/133/85 127/134/86 128/135/83
f 43/133/85 44/136/87 126/137/88 127/134/86
f 44/136/87 45/140/89 125/141/90 126/137/88
f 45/140/89 46/146/91 124/147/92 125/141/90
f 46/146/91 47/151/93 123/152/94 124/147/92
f 47/151/93 48/156/95 142/157/96 123/152/94
f 48/59/95 49/58/97 141/66/98 142/67/96
f 49/58/97 50/65/99 140/74/100 141/66/98
f 50/65/99 51/73/101 139/78/102 140/74/100
f 51/73/101 52/77/103 138/80/104 139/78/102
f 52/186/103 53/185/105 137/183/106 138/180/104
f 53/185/105 54/182/107 136/178/108 137/183/106
f 54/182/107 55/177/109 135/173/110 136/178/108
f 55/177/109 56/172/111 134/168/112 135/173/110
f 56/172/111 57/166/113 133/162/114 134/168/112
f 57/166/113 58/167/115 132/159/116 133/162/114
f 58/37/115 59/31/117 131/36/118 132/39/116
f 59/31/117 60/25/119 130/30/120 131/36/118
f 60/25/119 41/17/81 129/24/84 130/30/120
s 1
f 2/82/2 1/81/1 81/85/121
f 3/86/5 2/82/2 81/85/121
f 4/90/7 3/86/5 81/85/121
f 5/94/9 4/90/7 81/85/121
f 6/100/11 5/94/9 81/85/121
f 7/105/13 6/100/11 81/85/121
f 8/110/15 7/105/13 81/85/121
f 9/117/17 8/110/15 81/85/121
f 10/122/19 9/117/17 81/85/121
f 11/127/21 10/122/19 81/85/121
f 12/130/23 11/127/21 81/85/121
f 13/125/25 12/130/23 81/85/121
f 14/120/27 13/125/25 81/85/121
f 15/115/29 14/120/27 81/85/121
f 16/108/31 15/115/29 81/85/121
f 17/103/33 16/108/31 81/85/121
f 18/98/35 17/103/33 81/85/121
f 19/92/37 18/98/35 81/85/121
f 20/88/39 19/92/37 81/85/121
f 1/81/1 20/88/39 81/85/121
s 3
f 61/145/122 62/139/123 82/143/124
f 62/139/123 63/138/125 82/143/124
f 63/138/125 64/142/126 82/143/124
f 64/142/126 65/148/127 82/143/124
f 65/148/127 66/153/128 82/143/124
f 66/153/128 67/158/129 82/143/124
f 67/158/129 68/161/130 82/143/124
f 68/161/130 69/165/131 82/143/124
f 69/165/131 70/171/132 82/143/124
f 70/171/132 71/176/133 82/143/124
f 71/176/133 72/181/134 82/143/124
f 72/181/134 73/184/135 82/143/124
f 73/184/135 74/179/136 82/143/124
f 74/179/136 75/174/137 82/143/124
f 75/174/137 76/169/138 82/143/124
f 76/169/138 77/163/139 82/143/124
f 77/163/139 78/160/140 82/143/124
f 78/160/140 79/155/141 82/143/124
f 79/155/141 80/150/142 82/143/124
f 80/150/142 61/145/122 82/143/124
s 2
f 84/202/143 83/204/144 47/206/145 46/205/146
f 85/197/147 84/202/143 46/205/146 45/203/148
f 86/193/149 85/197/147 45/203/148 44/198/150
f 87/194/151 86/193/149 44/198/150 43/199/152
f 88/9/153 87/15/151 43/22/152 42/16/154
f 89/10/155 88/9/153 42/16/154 41/17/156
f 90/18/157 89/10/155 41/17/156 60/25/158
f 91/26/159 90/18/157 60/25/158 59/31/160
f 92/32/161 91/26/159 59/31/160 58/37/162
f 93/38/163 92/32/161 58/37/162 57/40/164
f 94/222/165 93/224/163 57/226/164 56/225/166
f 95/217/167 94/222/165 56/225/166 55/223/168
f 96/213/169 95/217/167 55/223/168 54/218/170
f 97/214/171 96/213/169 54/218/170 53/219/172
f 98/72/173 97/76/171 53/79/172 52/77/174
f 99/64/175 98/72/173 52/77/174 51/73/176
f 100/57/177 99/64/175 51/73/176 50/65/178
f 101/49/179 100/57/177 50/65/178 49/58/180
f 102/50/181 101/49/179 49/58/180 48/59/182
f 83/60/144 102/50/181 48/59/182 47/68/145
f 104/196/52 103/201/54 83/204/144 84/202/143
f 105/192/50 104/196/52 84/202/143 85/197/147
f 106/189/48 105/192/50 85/197/147 86/193/149
f 107/190/46 106/189/48 86/193/149 87/194/151
f 108/3/43 107/8/46 87/15/151 88/9/153
f 109/4/44 108/3/43 88/9/153 89/10/155
f 110/12/80 109/4/44 89/10/155 90/18/157
f 111/20/78 110/12/80 90/18/157 91/26/159
f 112/28/76 111/20/78 91/26/159 92/32/161
f 113/34/74 112/28/76 92/32/161 93/38/163
f 114/216/72 113/221/74 93/224/163 94/222/165
f 115/212/70 114/216/72 94/222/165 95/217/167
f 116/209/68 115/212/70 95/217/167 96/213/169
f 117/210/66 116/209/68 96/213/169 97/214/171
f 118/63/64 117/71/66 97/76/171 98/72/173
f 119/56/62 118/63/64 98/72/173 99/64/175
f 120/48/60 119/56/62 99/64/175 100/57/177
f 121/43/58 120/48/60 100/57/177 101/49/179
f 122/44/56 121/43/58 101/49/179 102/50/181
f 103/52/54 122/44/56 102/50/181 83/60/144
s 3
f 124/147/92 123/152/94 67/158/129 66/153/128
f 125/141/90 124/147/92 66/153/128 65/148/127
f 126/137/88 125/141/90 65/148/127 64/142/126
f 127/134/86 126/137/88 64/142/126 63/138/125
f 128/135/83 127/134/86 63/138/125 62/139/123
f 129/144/84 128/135/83 62/139/123 61/145/122
f 130/149/120 129/144/84 61/145/122 80/150/142
f 131/154/118 130/149/120 80/150/142 79/155/141
f 132/159/116 131/154/118 79/155/141 78/160/140
f 133/162/114 132/159/116 78/160/140 77/163/139
f 134/168/112 133/162/114 77/163/139 76/169/138
f 135/173/110 134/168/112 76/169/138 75/174/137
f 136/178/108 135/173/110 75/174/137 74/179/136
f 137/183/106 136/178/108 74/179/136 73/184/135
f 138/180/104 137/183/106 73/184/135 72/181/134
f 139/175/102 138/180/104 72/181/134 71/176/133
f 140/170/100 139/175/102 71/176/133 70/171/132
f 141/164/98 140/170/100 70/171/132 69/165/131
f 142/157/96 141/164/98 69/165/131 68/161/130
f 123/152/94 142/157/96 68/161/130 67/158/129
s 1
f 144/91/8 143/95/10 25/102/183 24/96/184
f 145/87/6 144/91/8 24/96/184 23/97/185
f 146/6/3 145/13/6 23/7/185 22/2/186
f 147/5/4 146/6/3 22/2/186 21/1/187
f 148/14/40 147/5/4 21/1/187 40/11/188
f 149/21/38 148/14/40 40/11/188 39/19/189
f 150/29/36 149/21/38 39/19/189 38/27/190
f 151/35/34 150/29/36 38/27/190 37/33/191
f 152/109/32 151/104/34 37/113/191 36/114/192
f 153/116/30 152/109/32 36/114/192 35/119/193
f 154/121/28 153/116/30 35/119/193 34/124/194
f 155/126/26 154/121/28 34/124/194 33/129/195
f 156/69/24 155/75/26 33/70/195 32/62/196
f 157/61/22 156/69/24 32/62/196 31/55/197
f 158/53/20 157/61/22 31/55/197 30/47/198
f 159/46/18 158/53/20 30/47/198 29/42/199
f 160/45/16 159/46/18 29/42/199 28/41/200
f 161/54/14 160/45/16 28/41/200 27/51/201
f 162/101/12 161/106/14 27/112/201 26/107/202
f 143/95/10 162/101/12 26/107/202 25/102/183
